<svg width="68" height="56" viewBox="0 0 68 56" fill="none" xmlns="http://www.w3.org/2000/svg">
<path d="M68 26.9371V0.429483C68 0.0206255 67.4903 -0.149733 67.2184 0.15691L38.3328 36.3408C38.0949 36.6134 38.2988 37.0563 38.6727 37.0563H59.5382C60.1159 37.0563 60.6257 36.7837 60.9655 36.3408L67.5582 28.0955C67.8301 27.7889 68 27.38 68 26.9371ZM0.441778 28.1296L22.1229 55.3186C22.4628 55.7615 23.0065 56 23.5842 56H44.4498C44.8236 56 45.0275 55.5911 44.7896 55.3186L0.781608 0.190984C0.509744 -0.115659 0 0.0546991 0 0.463556V26.9711C0.033983 27.38 0.169913 27.7889 0.441778 28.1296Z" fill="#F04B4B"/>
</svg>
